<svg width="154" height="38" viewBox="0 0 154 38" fill="none" xmlns="http://www.w3.org/2000/svg">
<path fill-rule="evenodd" clip-rule="evenodd" d="M20.52 18.9999V19V18.9999L41.04 38L41.04 5.15221L41.04 5.17602C41.04 5.17203 41.04 5.16789 41.04 5.16385C41.04 2.31245 38.7277 9.15527e-05 35.8763 9.15527e-05H25.6838C22.8325 9.15527e-05 20.5201 2.31245 20.5201 5.16385V5.16383V18.9999H20.52Z" fill="#F9423A"/>
<path fill-rule="evenodd" clip-rule="evenodd" d="M5.1518 37.9999H15.3684H15.3394C15.345 37.9999 15.3506 38 15.3563 38C18.2076 38 20.52 35.6876 20.52 32.8362C20.52 32.8307 20.5199 32.8251 20.5199 32.8196V32.8482V19V19.0001L0 0V32.8362C0 35.6876 2.31236 38 5.16376 38C5.16937 38 5.17502 37.9999 5.18061 37.9999H5.1518Z" fill="#F9423A"/>
<path fill-rule="evenodd" clip-rule="evenodd" d="M136.97 23.0508H133.428C133.103 23.0508 132.802 23.105 132.531 23.2194C132.26 23.3279 132.019 23.5025 131.802 23.7374C131.333 24.1891 130.839 24.5324 130.315 24.7613C129.797 24.9961 129.255 25.1106 128.695 25.1106C127.52 25.1106 126.617 24.7432 125.985 24.0024C125.352 23.2677 124.991 22.1655 124.9 20.702H137.259C137.439 16.962 136.813 14.1615 135.386 12.2945C133.958 10.4336 131.73 9.50012 128.695 9.50012C125.786 9.51818 123.6 10.3433 122.142 11.9693C120.679 13.6015 119.95 16.0406 119.95 19.2928C119.95 22.545 120.673 25.0082 122.118 26.6885C123.563 28.3627 125.732 29.248 128.622 29.3384C130.182 29.3323 131.525 29.0914 132.639 28.6097C133.76 28.1218 134.675 27.4112 135.386 26.4776C136.096 25.5441 136.626 24.3999 136.97 23.0508ZM128.622 13.4388C129.652 13.4388 130.465 13.7641 131.056 14.4025C131.652 15.0469 132.019 16.0045 132.164 17.2692H124.973C125.153 16.0045 125.551 15.0469 126.159 14.4025C126.773 13.7641 127.593 13.4388 128.622 13.4388Z" fill="#1A1919"/>
<path fill-rule="evenodd" clip-rule="evenodd" d="M104.824 33.9998C104.824 35.5897 104.029 36.3847 102.439 36.3847H100.018V18.1003C100.145 15.2456 100.952 13.1136 102.439 11.6923C103.927 10.277 106.107 9.57233 108.98 9.57233C114.906 9.57233 117.869 12.7884 117.869 19.2205C117.869 22.4726 117.237 24.9359 115.966 26.6162C114.701 28.2904 112.792 29.1757 110.245 29.2661C109.052 29.2661 108.004 29.0192 107.101 28.5313C106.197 28.0375 105.439 27.2967 104.824 26.303V33.9998ZM108.908 24.966C110.208 24.966 111.196 24.5083 111.865 23.5868C112.539 22.6654 112.901 21.2802 112.955 19.4373C112.955 17.504 112.611 16.0586 111.925 15.095C111.238 14.1314 110.208 13.6556 108.835 13.6556C107.462 13.6556 106.45 14.1314 105.788 15.095C105.125 16.0586 104.806 17.504 104.824 19.4373C104.897 21.2802 105.27 22.6654 105.944 23.5868C106.619 24.5083 107.607 24.966 108.908 24.966Z" fill="#1A1919"/>
<path fill-rule="evenodd" clip-rule="evenodd" d="M88.0731 28.9047H92.9514V18.9676C92.9514 17.5764 93.2826 16.5284 93.9512 15.8298C94.6196 15.1252 95.6254 14.7758 96.9624 14.7758H98.5885V9.78918H97.9019C94.704 9.78918 92.2829 10.5601 90.6448 12.0958C89.0006 13.6376 88.1454 15.9502 88.0731 19.0398V28.9047Z" fill="#1A1919"/>
<path fill-rule="evenodd" clip-rule="evenodd" d="M85.8422 9.78918H83.385C82.59 9.78918 81.9998 9.98791 81.6204 10.3854C81.2349 10.7829 81.0542 11.3791 81.0723 12.1741V22.2559C81.0723 23.3218 80.8013 24.1168 80.2593 24.6468C79.7173 25.1708 78.9042 25.4358 77.8201 25.4358C76.7361 25.4358 75.9231 25.1708 75.381 24.6468C74.839 24.1168 74.568 23.3218 74.568 22.2559V9.78918H69.762V21.2802C69.762 22.8882 69.9728 24.2192 70.3883 25.2731C70.8039 26.3271 71.4242 27.116 72.2553 27.64C73.0864 28.182 73.9476 28.5856 74.845 28.8566C75.7424 29.1276 76.6819 29.2661 77.6756 29.2661C78.7055 29.2661 79.6932 29.1396 80.6327 28.8927C81.5722 28.6398 82.4635 28.2724 83.3127 27.7845C84.1619 27.2606 84.7943 26.4596 85.2158 25.3755C85.6314 24.2915 85.8422 22.9243 85.8422 21.2802V9.78918Z" fill="#1A1919"/>
<path fill-rule="evenodd" clip-rule="evenodd" d="M67.5969 28.9047V17.6667C67.615 14.9385 66.9525 12.8968 65.6095 11.5357C64.2665 10.1807 62.2308 9.50012 59.5026 9.50012C56.7744 9.50012 54.7268 10.1807 53.3536 11.5357C51.9865 12.8968 51.2999 14.9385 51.2999 17.6667V28.9047H56.1782V16.691C56.1962 15.6973 56.4733 14.9565 57.0153 14.4627C57.5633 13.9688 58.3644 13.7279 59.4304 13.7279C60.4964 13.7279 61.3034 13.9688 61.8514 14.4627C62.3995 14.9565 62.7006 15.6973 62.7548 16.691V26.5198C62.7548 27.2787 62.9535 27.8508 63.351 28.2423C63.7485 28.6337 64.3448 28.8505 65.1397 28.9047H67.5969Z" fill="#1A1919"/>
<path fill-rule="evenodd" clip-rule="evenodd" d="M144.168 10.2227H139.247V15.1428H144.168V15.1552V20.1599C144.168 21.5511 143.836 22.5989 143.168 23.2976C142.499 24.0023 141.494 24.3517 140.157 24.3517H138.531V29.3382H139.217C142.415 29.3382 144.836 28.5674 146.474 27.0316C148.118 25.4898 148.974 23.1772 149.046 20.0877V14.7898L144.113 10.2227H144.168Z" fill="#1A1919"/>
<path fill-rule="evenodd" clip-rule="evenodd" d="M149.046 9.86969L153.966 14.7898H149.046V9.86969Z" fill="#1A1919"/>
<path fill-rule="evenodd" clip-rule="evenodd" d="M149.046 9.86969H153.966V14.7898H149.046V9.86969Z" fill="#1A1919"/>
</svg>
