<svg xmlns="http://www.w3.org/2000/svg" viewBox="0 0 43.59 77.04"><g id="Layer_2" data-name="Layer 2"><g id="Layer_1-2" data-name="Layer 1"><path d="M31.93,0V.79l3.14.2a2,2,0,0,1,1.74.72,4.65,4.65,0,0,1,.42,2.35V27h0a22.05,22.05,0,0,0-8.86-5.5A16.28,16.28,0,0,0,24,20.62a13.82,13.82,0,0,0-3.07,0h0a20.6,20.6,0,0,0-3.65.6,16.83,16.83,0,0,0-4.61,1.94l-.39.26V4.33a5,5,0,0,1,.46-2.59A1.79,1.79,0,0,1,14.29,1l3.8-.2V0H0V.79L3.67,1a2,2,0,0,1,1.74.75,4.71,4.71,0,0,1,.43,2.32v26h0v2.49s0,2.22.29,4.26v0c0,.35.09.7.15,1,0,.05,0,.1,0,.16.06.32.13.62.2.89s.21.8.34,1.18a12.62,12.62,0,0,0,2.61,4.31A18.51,18.51,0,0,0,14.13,48a37.88,37.88,0,0,0,7.15,3,28.88,28.88,0,0,1,7.11,3.17,11.91,11.91,0,0,1,4.17,4.47,13.93,13.93,0,0,1,1.38,6.51,11.15,11.15,0,0,1-1.34,5.48,9.57,9.57,0,0,1-3.87,3.8,9.32,9.32,0,0,1-1.2.54,14.36,14.36,0,0,1-5.84.73c-.65-.07-1.28-.17-1.81-.27A15.67,15.67,0,0,1,15.68,74c-.36-.2-.73-.41-1.09-.65h0a15.6,15.6,0,0,1-4.15-4.78,29.43,29.43,0,0,1-3.21-8.89l-1.11.15v16.9L9,75V71.19c1,1.7,3.31,3.06,4.63,3.74h0a19.68,19.68,0,0,0,12.46,1.79l.68-.13.76-.18.87-.25.35-.1h0c.31-.11.62-.2.92-.32a17.54,17.54,0,0,0,5.66-3.57,16.91,16.91,0,0,0,3.84-5.33,15.47,15.47,0,0,0,1.38-6.52l-.21-2.61a12.88,12.88,0,0,0-.73-2.63,13.08,13.08,0,0,0-2.83-4.32,20.3,20.3,0,0,0-4.87-3.62c-.23-.13-.49-.25-.73-.38A13.35,13.35,0,0,0,36.64,41a21,21,0,0,0,2-9.77V4.33a5.9,5.9,0,0,1,.39-2.56A1.81,1.81,0,0,1,40.71,1l2.88-.2V0Zm4.8,36.15a17.33,17.33,0,0,1-1,3.18,11.68,11.68,0,0,1-4.39,5.38,11.17,11.17,0,0,1-2.22,1.09c-1.33-.6-2.78-1.17-4.37-1.72a37.77,37.77,0,0,1-7-3.09,10.88,10.88,0,0,1-4-3.76,10.5,10.5,0,0,1-1.26-5.36,10.53,10.53,0,0,1,2.64-7.23c1.74-1.95,4.27-2.95,7.59-3a1.92,1.92,0,0,1,.24,0,13.39,13.39,0,0,1,1.43.09l.32,0c.2,0,.39.09.59.12a14.73,14.73,0,0,1,5.67,2.87c.46.42,1.11.93,1.84,1.66l.31.31,0,0c.12.12.22.24.32.35l.11.12.18.21a14.93,14.93,0,0,1,2,3.11,12.37,12.37,0,0,1,1,3.2A8,8,0,0,1,36.73,36.15Z"/></g></g></svg>